<?xml version="1.0" encoding="UTF-8" standalone="no"?><!DOCTYPE svg PUBLIC "-//W3C//DTD SVG 1.1//EN" "http://www.w3.org/Graphics/SVG/1.1/DTD/svg11.dtd"><svg width="100%" height="100%" viewBox="0 0 1369 906" version="1.1" xmlns="http://www.w3.org/2000/svg" xmlns:xlink="http://www.w3.org/1999/xlink" xml:space="preserve" xmlns:serif="http://www.serif.com/" style="fill-rule:evenodd;clip-rule:evenodd;stroke-linejoin:round;stroke-miterlimit:2;"><rect id="Björn" x="-0" y="0" width="1369" height="905.63" style="fill:none;"/><g id="Björn1" serif:id="Björn"><rect x="132.945" y="674.303" width="1103.58" height="15" style="fill:#00ff48;"/><rect x="759.871" y="137.976" width="92.655" height="92.655" style="fill:#ff00f7;"/><rect x="759.871" y="333.775" width="92.655" height="92.655" style="fill:#ff00f7;"/><rect x="759.871" y="528.597" width="92.655" height="92.655" style="fill:#ff00f7;"/><rect x="759.871" y="722.976" width="92.655" height="92.655" style="fill:#ff00f7;"/><rect x="887.871" y="528.345" width="92.655" height="92.655" style="fill:#fff;"/><rect x="887.871" y="722.724" width="92.655" height="92.655" style="fill:#ff00f7;"/><rect x="1015.87" y="528.345" width="92.655" height="92.655" style="fill:#fff;"/><rect x="1015.87" y="722.724" width="92.655" height="92.655" style="fill:#fff;"/><rect x="1143.87" y="528.345" width="92.655" height="92.655" style="fill:#fcfcfc;"/><rect x="1143.87" y="722.724" width="92.655" height="92.655" style="fill:#fcfcfc;"/><rect x="887.871" y="333.775" width="92.655" height="92.655" style="fill:#ff00f7;"/><rect x="1015.87" y="333.775" width="92.655" height="92.655" style="fill:#ff00f7;"/><rect x="1143.87" y="333.775" width="92.655" height="92.655" style="fill:#ff00f7;"/><rect x="887.871" y="137.976" width="92.655" height="92.655" style="fill:#ff00f7;"/><rect x="1015.87" y="137.976" width="92.655" height="92.655" style="fill:#ff00f7;"/><rect x="1143.87" y="137.976" width="92.655" height="92.655" style="fill:#fff;"/><g transform="matrix(103.484,0,0,103.484,122.597,230.217)"><path d="M0.152,-0c-0.015,-0 -0.027,-0.005 -0.037,-0.015c-0.01,-0.01 -0.015,-0.022 -0.015,-0.037l0,-0.677c0,-0.015 0.005,-0.028 0.015,-0.037c0.01,-0.01 0.022,-0.015 0.037,-0.015l0.239,0c0.045,0 0.085,0.009 0.12,0.027c0.034,0.017 0.061,0.042 0.081,0.073c0.019,0.031 0.029,0.067 0.029,0.108c0,0.033 -0.009,0.062 -0.026,0.089c-0.018,0.026 -0.042,0.047 -0.073,0.062c0.044,0.011 0.079,0.032 0.106,0.063c0.027,0.031 0.04,0.072 0.04,0.123c0,0.046 -0.011,0.087 -0.032,0.122c-0.022,0.035 -0.052,0.063 -0.091,0.084c-0.039,0.02 -0.083,0.03 -0.133,0.03l-0.26,0Zm0.052,-0.096l0.208,0c0.031,0 0.058,-0.005 0.081,-0.016c0.023,-0.011 0.042,-0.026 0.055,-0.047c0.013,-0.021 0.02,-0.046 0.02,-0.077c0,-0.029 -0.007,-0.052 -0.02,-0.071c-0.013,-0.019 -0.032,-0.033 -0.055,-0.042c-0.023,-0.01 -0.05,-0.015 -0.081,-0.015l-0.208,0l0,0.268Zm0,-0.364l0.187,0c0.038,0 0.069,-0.009 0.093,-0.028c0.025,-0.019 0.037,-0.047 0.037,-0.085c0,-0.038 -0.012,-0.066 -0.037,-0.084c-0.024,-0.019 -0.055,-0.028 -0.093,-0.028l-0.187,0l0,0.225Z" style="fill:#fff;fill-rule:nonzero;"/></g><g transform="matrix(103.484,0,0,103.484,197.416,230.217)"><path d="M0.151,-0c-0.015,-0 -0.027,-0.005 -0.036,-0.015c-0.01,-0.009 -0.015,-0.021 -0.015,-0.036l0,-0.445c0,-0.015 0.005,-0.028 0.015,-0.037c0.009,-0.009 0.021,-0.014 0.036,-0.014c0.015,0 0.028,0.005 0.037,0.014c0.009,0.009 0.014,0.022 0.014,0.037l0,0.445c0,0.015 -0.005,0.027 -0.014,0.037c-0.009,0.009 -0.022,0.014 -0.037,0.014Zm0,-0.636c-0.018,0 -0.034,-0.006 -0.047,-0.019c-0.012,-0.013 -0.019,-0.029 -0.019,-0.047c0,-0.018 0.007,-0.033 0.02,-0.046c0.012,-0.013 0.028,-0.02 0.046,-0.02c0.018,0 0.034,0.007 0.047,0.02c0.012,0.013 0.019,0.028 0.019,0.046c0,0.018 -0.007,0.034 -0.019,0.047c-0.014,0.013 -0.029,0.019 -0.047,0.019Z" style="fill:#fff;fill-rule:nonzero;"/></g><g transform="matrix(103.484,0,0,103.484,228.668,230.217)"><path d="M0.347,0.004c-0.055,0 -0.105,-0.012 -0.148,-0.036c-0.043,-0.023 -0.076,-0.056 -0.101,-0.098c-0.024,-0.041 -0.036,-0.089 -0.036,-0.143c-0,-0.055 0.011,-0.103 0.034,-0.144c0.023,-0.042 0.055,-0.075 0.096,-0.098c0.041,-0.024 0.087,-0.036 0.14,-0.036c0.052,0 0.097,0.012 0.134,0.035c0.037,0.023 0.066,0.054 0.085,0.095c0.02,0.04 0.03,0.086 0.03,0.139c-0,0.013 -0.004,0.023 -0.013,0.032c-0.009,0.008 -0.02,0.012 -0.033,0.012l-0.403,-0l0,-0.08l0.4,0l-0.041,0.028c-0.001,-0.033 -0.007,-0.063 -0.02,-0.09c-0.013,-0.026 -0.031,-0.047 -0.054,-0.062c-0.023,-0.015 -0.052,-0.023 -0.085,-0.023c-0.038,0 -0.071,0.008 -0.098,0.025c-0.026,0.017 -0.047,0.039 -0.061,0.069c-0.014,0.028 -0.021,0.061 -0.021,0.098c-0,0.037 0.008,0.069 0.025,0.098c0.017,0.029 0.04,0.051 0.069,0.068c0.029,0.017 0.063,0.025 0.101,0.025c0.021,0 0.042,-0.004 0.064,-0.011c0.021,-0.008 0.039,-0.017 0.052,-0.027c0.01,-0.007 0.021,-0.011 0.032,-0.011c0.012,-0.001 0.022,0.003 0.031,0.01c0.011,0.01 0.017,0.021 0.018,0.033c0.001,0.012 -0.005,0.022 -0.016,0.031c-0.023,0.018 -0.051,0.033 -0.085,0.044c-0.033,0.011 -0.065,0.017 -0.096,0.017Z" style="fill:#fff;fill-rule:nonzero;"/></g><g transform="matrix(103.484,0,0,103.484,292.931,230.217)"><path d="M0.139,-0.342c0,-0.04 0.01,-0.076 0.029,-0.107c0.02,-0.032 0.047,-0.057 0.08,-0.076c0.033,-0.019 0.07,-0.028 0.11,-0.028c0.04,0 0.07,0.007 0.09,0.02c0.019,0.012 0.027,0.028 0.022,0.046c-0.002,0.009 -0.006,0.016 -0.011,0.022c-0.006,0.005 -0.013,0.008 -0.02,0.009c-0.007,0.001 -0.015,0.001 -0.024,-0.001c-0.043,-0.009 -0.081,-0.009 -0.115,-0.002c-0.034,0.007 -0.061,0.021 -0.08,0.041c-0.02,0.02 -0.03,0.045 -0.03,0.076l-0.051,0Zm0.001,0.342c-0.016,-0 -0.028,-0.004 -0.037,-0.013c-0.009,-0.008 -0.013,-0.02 -0.013,-0.037l0,-0.447c0,-0.016 0.004,-0.028 0.013,-0.037c0.009,-0.009 0.021,-0.013 0.037,-0.013c0.017,0 0.029,0.004 0.038,0.013c0.008,0.008 0.012,0.02 0.012,0.037l0,0.447c0,0.016 -0.004,0.028 -0.012,0.037c-0.009,0.009 -0.021,0.013 -0.038,0.013Z" style="fill:#fff;fill-rule:nonzero;"/></g><g transform="matrix(103.484,0,0,103.484,343.225,230.217)"></g><g transform="matrix(103.484,0,0,103.484,122.597,425.217)"><path d="M0.152,-0c-0.015,-0 -0.027,-0.005 -0.037,-0.015c-0.01,-0.01 -0.015,-0.022 -0.015,-0.037l0,-0.677c0,-0.015 0.005,-0.028 0.015,-0.037c0.01,-0.01 0.022,-0.015 0.037,-0.015l0.18,0c0.05,0 0.094,0.011 0.133,0.032c0.039,0.021 0.069,0.049 0.091,0.086c0.021,0.037 0.032,0.079 0.032,0.128c0,0.045 -0.011,0.086 -0.032,0.121c-0.022,0.035 -0.052,0.063 -0.091,0.083c-0.039,0.02 -0.083,0.03 -0.133,0.03l-0.128,0l0,0.249c0,0.015 -0.005,0.027 -0.014,0.037c-0.01,0.01 -0.023,0.015 -0.038,0.015Zm0.415,0c-0.009,0 -0.018,-0.002 -0.025,-0.006c-0.008,-0.004 -0.015,-0.01 -0.02,-0.019l-0.18,-0.29l0.101,-0.029l0.164,0.264c0.012,0.019 0.014,0.038 0.005,0.055c-0.009,0.017 -0.024,0.025 -0.045,0.025Zm-0.363,-0.397l0.128,0c0.031,0 0.058,-0.006 0.081,-0.017c0.023,-0.012 0.042,-0.028 0.055,-0.049c0.013,-0.021 0.02,-0.045 0.02,-0.072c0,-0.029 -0.007,-0.055 -0.02,-0.078c-0.013,-0.023 -0.032,-0.04 -0.055,-0.053c-0.023,-0.013 -0.05,-0.019 -0.081,-0.019l-0.128,0l0,0.288Z" style="fill:#fff;fill-rule:nonzero;"/></g><g transform="matrix(103.484,0,0,103.484,187.998,425.217)"><path d="M0.32,0.005c-0.046,0 -0.087,-0.01 -0.124,-0.03c-0.036,-0.019 -0.065,-0.048 -0.086,-0.086c-0.02,-0.038 -0.031,-0.085 -0.031,-0.14l0,-0.246c0,-0.015 0.005,-0.027 0.014,-0.036c0.01,-0.01 0.022,-0.015 0.037,-0.015c0.015,0 0.027,0.005 0.037,0.015c0.009,0.009 0.014,0.021 0.014,0.036l-0,0.246c-0,0.037 0.007,0.068 0.021,0.093c0.014,0.024 0.033,0.042 0.057,0.054c0.024,0.011 0.051,0.017 0.081,0.017c0.029,0 0.054,-0.006 0.076,-0.017c0.023,-0.011 0.041,-0.027 0.054,-0.046c0.013,-0.019 0.02,-0.041 0.02,-0.065l0.063,0c0,0.041 -0.01,0.079 -0.031,0.112c-0.02,0.033 -0.048,0.06 -0.083,0.079c-0.034,0.019 -0.074,0.029 -0.119,0.029Zm0.221,-0.005c-0.015,0 -0.027,-0.005 -0.036,-0.014c-0.01,-0.01 -0.015,-0.022 -0.015,-0.037l0,-0.446c0,-0.015 0.005,-0.028 0.015,-0.037c0.009,-0.009 0.021,-0.014 0.036,-0.014c0.015,0 0.028,0.005 0.037,0.014c0.009,0.009 0.014,0.022 0.014,0.037l-0,0.446c-0,0.015 -0.005,0.027 -0.014,0.037c-0.009,0.009 -0.022,0.014 -0.037,0.014Z" style="fill:#fff;fill-rule:nonzero;"/></g><g transform="matrix(103.484,0,0,103.484,258.575,425.217)"><path d="M0.808,0.001c-0.015,0 -0.027,-0.005 -0.037,-0.014c-0.009,-0.01 -0.014,-0.022 -0.014,-0.037l0,-0.286c0,-0.042 -0.01,-0.073 -0.031,-0.093c-0.021,-0.021 -0.048,-0.031 -0.081,-0.031c-0.035,0 -0.063,0.012 -0.086,0.036c-0.022,0.024 -0.033,0.055 -0.033,0.092l-0.083,0c0,-0.043 0.009,-0.081 0.028,-0.114c0.019,-0.033 0.045,-0.059 0.078,-0.078c0.034,-0.019 0.073,-0.028 0.116,-0.028c0.038,0 0.072,0.008 0.101,0.025c0.029,0.017 0.052,0.041 0.069,0.074c0.016,0.032 0.024,0.071 0.024,0.117l0,0.286c0,0.015 -0.005,0.027 -0.014,0.036c-0.009,0.01 -0.022,0.015 -0.037,0.015Zm-0.667,-0c-0.015,-0 -0.027,-0.005 -0.036,-0.015c-0.01,-0.009 -0.015,-0.021 -0.015,-0.036l0,-0.445c0,-0.015 0.005,-0.028 0.015,-0.037c0.009,-0.009 0.021,-0.014 0.036,-0.014c0.015,0 0.028,0.005 0.037,0.014c0.009,0.009 0.014,0.022 0.014,0.037l0,0.445c0,0.015 -0.005,0.027 -0.014,0.037c-0.009,0.009 -0.022,0.014 -0.037,0.014Zm0.334,0c-0.015,0 -0.027,-0.005 -0.036,-0.014c-0.01,-0.01 -0.015,-0.022 -0.015,-0.037l0,-0.286c0,-0.042 -0.01,-0.073 -0.031,-0.093c-0.021,-0.021 -0.048,-0.031 -0.081,-0.031c-0.035,0 -0.063,0.012 -0.086,0.036c-0.023,0.024 -0.034,0.055 -0.034,0.092l-0.063,0c0,-0.043 0.009,-0.081 0.026,-0.114c0.017,-0.033 0.041,-0.059 0.072,-0.078c0.031,-0.019 0.066,-0.028 0.105,-0.028c0.038,0 0.072,0.008 0.101,0.025c0.029,0.017 0.052,0.041 0.069,0.074c0.016,0.032 0.024,0.071 0.024,0.117l0,0.286c0,0.015 -0.005,0.027 -0.014,0.036c-0.009,0.01 -0.022,0.015 -0.037,0.015Z" style="fill:#fff;fill-rule:nonzero;"/></g><g transform="matrix(103.484,0,0,103.484,355.643,425.217)"></g><g transform="matrix(103.484,0,0,103.484,385.964,425.217)"><path d="M0.45,0.01c-0.054,0 -0.105,-0.01 -0.152,-0.031c-0.047,-0.02 -0.088,-0.048 -0.123,-0.084c-0.035,-0.037 -0.062,-0.079 -0.082,-0.128c-0.019,-0.049 -0.029,-0.101 -0.029,-0.158c-0,-0.056 0.01,-0.108 0.029,-0.156c0.02,-0.049 0.047,-0.091 0.082,-0.127c0.035,-0.037 0.076,-0.065 0.123,-0.086c0.047,-0.021 0.097,-0.031 0.152,-0.031c0.051,0 0.095,0.007 0.132,0.02c0.037,0.013 0.075,0.035 0.112,0.066c0.005,0.004 0.009,0.008 0.012,0.013c0.003,0.004 0.005,0.008 0.006,0.013c0.001,0.004 0.002,0.009 0.002,0.015c-0,0.013 -0.005,0.023 -0.014,0.031c-0.009,0.009 -0.019,0.013 -0.032,0.014c-0.013,0.001 -0.025,-0.003 -0.037,-0.012c-0.025,-0.021 -0.05,-0.038 -0.077,-0.049c-0.026,-0.011 -0.061,-0.017 -0.104,-0.017c-0.039,0 -0.076,0.008 -0.111,0.024c-0.035,0.016 -0.065,0.038 -0.092,0.066c-0.026,0.028 -0.046,0.06 -0.061,0.097c-0.015,0.038 -0.022,0.077 -0.022,0.119c-0,0.043 0.007,0.083 0.022,0.119c0.015,0.038 0.035,0.07 0.061,0.098c0.027,0.028 0.057,0.05 0.092,0.066c0.035,0.015 0.072,0.023 0.111,0.023c0.034,0 0.066,-0.006 0.096,-0.017c0.031,-0.012 0.06,-0.028 0.088,-0.049c0.012,-0.009 0.024,-0.012 0.035,-0.011c0.012,0.001 0.022,0.005 0.03,0.014c0.008,0.008 0.012,0.019 0.012,0.034c-0,0.007 -0.001,0.013 -0.004,0.02c-0.003,0.006 -0.007,0.012 -0.012,0.017c-0.036,0.029 -0.075,0.05 -0.116,0.065c-0.041,0.015 -0.084,0.022 -0.129,0.022Z" style="fill:#fff;fill-rule:nonzero;"/></g><g transform="matrix(103.484,0,0,103.484,462.232,425.217)"><path d="M0.338,0.004c-0.054,0 -0.102,-0.012 -0.143,-0.036c-0.041,-0.023 -0.074,-0.056 -0.098,-0.098c-0.023,-0.041 -0.035,-0.089 -0.035,-0.143c0,-0.055 0.012,-0.103 0.035,-0.144c0.024,-0.042 0.057,-0.075 0.098,-0.098c0.041,-0.024 0.089,-0.036 0.143,-0.036c0.053,0 0.101,0.012 0.142,0.036c0.041,0.023 0.074,0.056 0.097,0.098c0.024,0.041 0.036,0.089 0.036,0.144c-0,0.054 -0.012,0.102 -0.035,0.144c-0.023,0.041 -0.056,0.074 -0.097,0.098c-0.041,0.023 -0.089,0.035 -0.143,0.035Zm-0,-0.09c0.035,-0 0.065,-0.008 0.092,-0.024c0.027,-0.016 0.047,-0.038 0.062,-0.066c0.015,-0.028 0.023,-0.06 0.023,-0.097c0,-0.037 -0.008,-0.069 -0.023,-0.097c-0.015,-0.029 -0.035,-0.051 -0.062,-0.067c-0.027,-0.016 -0.057,-0.024 -0.092,-0.024c-0.035,0 -0.065,0.008 -0.092,0.024c-0.027,0.016 -0.048,0.038 -0.063,0.067c-0.015,0.028 -0.023,0.06 -0.023,0.097c0,0.037 0.008,0.069 0.023,0.097c0.015,0.028 0.036,0.05 0.063,0.066c0.027,0.016 0.057,0.024 0.092,0.024Z" style="fill:#fff;fill-rule:nonzero;"/></g><g transform="matrix(103.484,0,0,103.484,532.083,425.217)"><path d="M0.22,-0c-0.029,-0 -0.055,-0.008 -0.078,-0.024c-0.023,-0.016 -0.04,-0.038 -0.053,-0.065c-0.013,-0.028 -0.019,-0.06 -0.019,-0.096l-0,-0.546c-0,-0.015 0.005,-0.027 0.014,-0.036c0.009,-0.009 0.021,-0.014 0.036,-0.014c0.015,0 0.027,0.005 0.036,0.014c0.009,0.009 0.014,0.021 0.014,0.036l-0,0.546c-0,0.025 0.005,0.045 0.014,0.061c0.01,0.016 0.021,0.024 0.036,0.024l0.025,0c0.014,0 0.025,0.005 0.033,0.014c0.008,0.009 0.012,0.021 0.012,0.036c-0,0.015 -0.006,0.027 -0.019,0.036c-0.012,0.009 -0.029,0.014 -0.049,0.014l-0.002,0Z" style="fill:#fff;fill-rule:nonzero;"/></g><g transform="matrix(103.484,0,0,103.484,560.024,425.217)"><path d="M0.318,0.004c-0.049,0 -0.092,-0.012 -0.131,-0.036c-0.038,-0.025 -0.069,-0.058 -0.091,-0.099c-0.023,-0.042 -0.034,-0.089 -0.034,-0.142c0,-0.053 0.012,-0.1 0.037,-0.142c0.024,-0.042 0.057,-0.075 0.098,-0.099c0.042,-0.025 0.089,-0.037 0.141,-0.037c0.052,0 0.099,0.012 0.14,0.037c0.041,0.024 0.074,0.057 0.098,0.099c0.025,0.042 0.037,0.089 0.037,0.142l-0.039,0c0,0.052 -0.011,0.099 -0.034,0.141c-0.022,0.042 -0.053,0.075 -0.091,0.099c-0.038,0.025 -0.082,0.037 -0.131,0.037Zm0.02,-0.09c0.034,-0 0.064,-0.008 0.091,-0.025c0.027,-0.016 0.048,-0.038 0.063,-0.067c0.015,-0.028 0.023,-0.06 0.023,-0.095c0,-0.036 -0.008,-0.068 -0.023,-0.096c-0.015,-0.029 -0.036,-0.051 -0.063,-0.068c-0.027,-0.016 -0.057,-0.024 -0.091,-0.024c-0.033,0 -0.063,0.008 -0.09,0.025c-0.027,0.016 -0.049,0.038 -0.064,0.066c-0.016,0.029 -0.024,0.061 -0.024,0.097c0,0.035 0.008,0.067 0.024,0.096c0.015,0.028 0.036,0.05 0.063,0.067c0.027,0.016 0.058,0.024 0.091,0.024Zm0.224,0.087c-0.015,0 -0.027,-0.005 -0.036,-0.014c-0.01,-0.01 -0.015,-0.022 -0.015,-0.037l0,-0.153l0.019,-0.106l0.083,0.036l0,0.223c0,0.015 -0.005,0.027 -0.014,0.037c-0.01,0.009 -0.022,0.014 -0.037,0.014Z" style="fill:#fff;fill-rule:nonzero;"/></g><g transform="matrix(103.484,0,0,103.484,629.876,425.217)"></g><g transform="matrix(103.484,0,0,103.484,126.322,620.217)"><path d="M0.45,0.01c-0.054,0 -0.105,-0.01 -0.152,-0.031c-0.047,-0.02 -0.088,-0.048 -0.123,-0.084c-0.035,-0.037 -0.062,-0.079 -0.082,-0.128c-0.019,-0.049 -0.029,-0.101 -0.029,-0.158c-0,-0.056 0.01,-0.108 0.029,-0.156c0.02,-0.049 0.047,-0.091 0.082,-0.127c0.035,-0.037 0.076,-0.065 0.123,-0.086c0.047,-0.021 0.097,-0.031 0.152,-0.031c0.051,0 0.095,0.007 0.132,0.02c0.037,0.013 0.075,0.035 0.112,0.066c0.005,0.004 0.009,0.008 0.012,0.013c0.003,0.004 0.005,0.008 0.006,0.013c0.001,0.004 0.002,0.009 0.002,0.015c-0,0.013 -0.005,0.023 -0.014,0.032c-0.009,0.009 -0.02,0.013 -0.033,0.014c-0.013,0.001 -0.025,-0.004 -0.036,-0.013c-0.025,-0.021 -0.05,-0.038 -0.077,-0.049c-0.026,-0.011 -0.061,-0.017 -0.104,-0.017c-0.039,0 -0.076,0.008 -0.111,0.024c-0.035,0.016 -0.065,0.038 -0.092,0.066c-0.026,0.028 -0.046,0.06 -0.061,0.097c-0.015,0.038 -0.022,0.077 -0.022,0.119c-0,0.043 0.007,0.083 0.022,0.119c0.015,0.038 0.035,0.07 0.061,0.098c0.027,0.028 0.057,0.05 0.092,0.066c0.035,0.015 0.072,0.023 0.111,0.023c0.034,0 0.066,-0.006 0.096,-0.017c0.031,-0.012 0.06,-0.028 0.088,-0.049c0.012,-0.009 0.024,-0.012 0.035,-0.011c0.012,0.001 0.022,0.005 0.03,0.014c0.008,0.008 0.012,0.019 0.012,0.034c-0,0.007 -0.001,0.013 -0.004,0.02c-0.002,0.006 -0.006,0.012 -0.012,0.017c-0.035,0.029 -0.074,0.051 -0.115,0.066c-0.041,0.014 -0.085,0.021 -0.13,0.021Zm0.261,-0.124l-0.1,-0.02l-0,-0.179l-0.138,0c-0.015,0 -0.027,-0.004 -0.037,-0.013c-0.01,-0.009 -0.015,-0.02 -0.015,-0.033c-0,-0.013 0.005,-0.024 0.015,-0.033c0.01,-0.009 0.022,-0.013 0.037,-0.013l0.187,0c0.015,0 0.028,0.005 0.037,0.015c0.009,0.009 0.014,0.022 0.014,0.037l-0,0.239Z" style="fill:#fff;fill-rule:nonzero;"/></g><g transform="matrix(103.484,0,0,103.484,206.729,620.217)"><path d="M0.151,-0c-0.015,-0 -0.027,-0.005 -0.036,-0.015c-0.01,-0.009 -0.015,-0.021 -0.015,-0.036l0,-0.445c0,-0.015 0.005,-0.028 0.015,-0.037c0.009,-0.009 0.021,-0.014 0.036,-0.014c0.015,0 0.028,0.005 0.037,0.014c0.009,0.009 0.014,0.022 0.014,0.037l0,0.445c0,0.015 -0.005,0.027 -0.014,0.037c-0.009,0.009 -0.022,0.014 -0.037,0.014Zm0,-0.636c-0.018,0 -0.034,-0.006 -0.047,-0.019c-0.012,-0.013 -0.019,-0.029 -0.019,-0.047c0,-0.018 0.007,-0.033 0.02,-0.046c0.012,-0.013 0.028,-0.02 0.046,-0.02c0.018,0 0.034,0.007 0.047,0.02c0.012,0.013 0.019,0.028 0.019,0.046c0,0.018 -0.007,0.034 -0.019,0.047c-0.014,0.013 -0.029,0.019 -0.047,0.019Z" style="fill:#fff;fill-rule:nonzero;"/></g><g transform="matrix(103.484,0,0,103.484,237.981,620.217)"><path d="M0.552,0.001c-0.015,0 -0.027,-0.005 -0.037,-0.014c-0.009,-0.01 -0.014,-0.022 -0.014,-0.037l0,-0.246c0,-0.038 -0.007,-0.069 -0.021,-0.093c-0.014,-0.024 -0.033,-0.042 -0.056,-0.053c-0.024,-0.012 -0.051,-0.018 -0.082,-0.018c-0.028,0 -0.053,0.006 -0.076,0.017c-0.023,0.011 -0.041,0.026 -0.054,0.045c-0.013,0.02 -0.02,0.041 -0.02,0.066l-0.063,0c0,-0.042 0.01,-0.08 0.031,-0.112c0.02,-0.034 0.048,-0.06 0.083,-0.079c0.035,-0.019 0.075,-0.029 0.119,-0.029c0.046,0 0.087,0.01 0.124,0.03c0.036,0.019 0.065,0.048 0.086,0.086c0.02,0.038 0.031,0.085 0.031,0.14l0,0.246c0,0.015 -0.005,0.027 -0.014,0.036c-0.01,0.01 -0.022,0.015 -0.037,0.015Zm-0.411,-0c-0.015,-0 -0.027,-0.005 -0.036,-0.015c-0.01,-0.009 -0.015,-0.021 -0.015,-0.036l0,-0.446c0,-0.015 0.005,-0.028 0.015,-0.037c0.009,-0.009 0.021,-0.014 0.036,-0.014c0.015,0 0.028,0.005 0.037,0.014c0.009,0.009 0.014,0.022 0.014,0.037l0,0.446c0,0.015 -0.005,0.027 -0.014,0.037c-0.009,0.009 -0.022,0.014 -0.037,0.014Z" style="fill:#fff;fill-rule:nonzero;"/></g><g transform="matrix(103.484,0,0,103.484,308.558,620.217)"></g><g transform="matrix(103.484,0,0,103.484,338.878,620.217)"><path d="M0.331,-0c-0.015,-0 -0.027,-0.005 -0.037,-0.015c-0.01,-0.01 -0.015,-0.022 -0.015,-0.037l0,-0.729l0.104,0l0,0.729c0,0.015 -0.005,0.027 -0.015,0.037c-0.01,0.01 -0.022,0.015 -0.037,0.015Zm-0.268,-0.685c-0.014,0 -0.026,-0.005 -0.035,-0.014c-0.009,-0.009 -0.013,-0.02 -0.013,-0.034c0,-0.014 0.004,-0.026 0.013,-0.035c0.009,-0.009 0.021,-0.013 0.035,-0.013l0.535,0c0.014,0 0.026,0.004 0.035,0.013c0.009,0.009 0.013,0.021 0.013,0.035c-0,0.014 -0.004,0.025 -0.013,0.034c-0.009,0.009 -0.021,0.014 -0.035,0.014l-0.535,0Z" style="fill:#fff;fill-rule:nonzero;"/></g><g transform="matrix(103.484,0,0,103.484,391.759,620.217)"><path d="M0.338,0.004c-0.054,0 -0.102,-0.012 -0.143,-0.036c-0.041,-0.023 -0.074,-0.056 -0.098,-0.098c-0.023,-0.041 -0.035,-0.089 -0.035,-0.143c0,-0.055 0.012,-0.103 0.035,-0.144c0.024,-0.042 0.057,-0.075 0.098,-0.098c0.041,-0.024 0.089,-0.036 0.143,-0.036c0.053,0 0.101,0.012 0.142,0.036c0.041,0.023 0.074,0.056 0.097,0.098c0.024,0.041 0.036,0.089 0.036,0.144c-0,0.054 -0.012,0.102 -0.035,0.144c-0.023,0.041 -0.056,0.074 -0.097,0.098c-0.041,0.023 -0.089,0.035 -0.143,0.035Zm-0,-0.09c0.035,-0 0.065,-0.008 0.092,-0.024c0.027,-0.016 0.047,-0.038 0.062,-0.066c0.015,-0.028 0.023,-0.06 0.023,-0.097c0,-0.037 -0.008,-0.069 -0.023,-0.097c-0.015,-0.029 -0.035,-0.051 -0.062,-0.067c-0.027,-0.016 -0.057,-0.024 -0.092,-0.024c-0.035,0 -0.065,0.008 -0.092,0.024c-0.027,0.016 -0.048,0.038 -0.063,0.067c-0.015,0.028 -0.023,0.06 -0.023,0.097c0,0.037 0.008,0.069 0.023,0.097c0.015,0.028 0.036,0.05 0.063,0.066c0.027,0.016 0.057,0.024 0.092,0.024Z" style="fill:#fff;fill-rule:nonzero;"/></g><g transform="matrix(103.484,0,0,103.484,461.611,620.217)"><path d="M0.552,0.001c-0.015,0 -0.027,-0.005 -0.037,-0.014c-0.009,-0.01 -0.014,-0.022 -0.014,-0.037l0,-0.246c0,-0.038 -0.007,-0.069 -0.021,-0.093c-0.014,-0.024 -0.033,-0.042 -0.056,-0.053c-0.024,-0.012 -0.051,-0.018 -0.082,-0.018c-0.028,0 -0.053,0.006 -0.076,0.017c-0.023,0.011 -0.041,0.026 -0.054,0.045c-0.013,0.02 -0.02,0.041 -0.02,0.066l-0.063,0c0,-0.042 0.01,-0.08 0.031,-0.112c0.02,-0.034 0.048,-0.06 0.083,-0.079c0.035,-0.019 0.075,-0.029 0.119,-0.029c0.046,0 0.087,0.01 0.124,0.03c0.036,0.019 0.065,0.048 0.086,0.086c0.02,0.038 0.031,0.085 0.031,0.14l0,0.246c0,0.015 -0.005,0.027 -0.014,0.036c-0.01,0.01 -0.022,0.015 -0.037,0.015Zm-0.411,-0c-0.015,-0 -0.027,-0.005 -0.036,-0.015c-0.01,-0.009 -0.015,-0.021 -0.015,-0.036l0,-0.446c0,-0.015 0.005,-0.028 0.015,-0.037c0.009,-0.009 0.021,-0.014 0.036,-0.014c0.015,0 0.028,0.005 0.037,0.014c0.009,0.009 0.014,0.022 0.014,0.037l0,0.446c0,0.015 -0.005,0.027 -0.014,0.037c-0.009,0.009 -0.022,0.014 -0.037,0.014Z" style="fill:#fff;fill-rule:nonzero;"/></g><g transform="matrix(103.484,0,0,103.484,532.187,620.217)"><path d="M0.151,-0c-0.015,-0 -0.027,-0.005 -0.036,-0.015c-0.01,-0.009 -0.015,-0.021 -0.015,-0.036l0,-0.445c0,-0.015 0.005,-0.028 0.015,-0.037c0.009,-0.009 0.021,-0.014 0.036,-0.014c0.015,0 0.028,0.005 0.037,0.014c0.009,0.009 0.014,0.022 0.014,0.037l0,0.445c0,0.015 -0.005,0.027 -0.014,0.037c-0.009,0.009 -0.022,0.014 -0.037,0.014Zm0,-0.636c-0.018,0 -0.034,-0.006 -0.047,-0.019c-0.012,-0.013 -0.019,-0.029 -0.019,-0.047c0,-0.018 0.007,-0.033 0.02,-0.046c0.012,-0.013 0.028,-0.02 0.046,-0.02c0.018,0 0.034,0.007 0.047,0.02c0.012,0.013 0.019,0.028 0.019,0.046c0,0.018 -0.007,0.034 -0.019,0.047c-0.014,0.013 -0.029,0.019 -0.047,0.019Z" style="fill:#fff;fill-rule:nonzero;"/></g><g transform="matrix(103.484,0,0,103.484,563.439,620.217)"><path d="M0.338,0.004c-0.053,0 -0.101,-0.012 -0.143,-0.037c-0.041,-0.024 -0.074,-0.057 -0.098,-0.099c-0.023,-0.041 -0.035,-0.088 -0.035,-0.141c0,-0.054 0.012,-0.102 0.035,-0.144c0.023,-0.042 0.055,-0.075 0.096,-0.098c0.041,-0.024 0.087,-0.036 0.14,-0.036c0.039,0 0.075,0.008 0.108,0.023c0.033,0.015 0.062,0.037 0.088,0.067c0.009,0.011 0.013,0.022 0.01,0.033c-0.003,0.011 -0.01,0.021 -0.022,0.03c-0.009,0.007 -0.02,0.009 -0.031,0.007c-0.011,-0.003 -0.022,-0.009 -0.031,-0.018c-0.033,-0.035 -0.073,-0.052 -0.122,-0.052c-0.034,0 -0.064,0.008 -0.09,0.024c-0.026,0.015 -0.046,0.037 -0.061,0.065c-0.015,0.028 -0.022,0.061 -0.022,0.099c0,0.036 0.008,0.068 0.023,0.096c0.015,0.028 0.035,0.05 0.062,0.067c0.027,0.016 0.058,0.024 0.093,0.024c0.023,0 0.044,-0.003 0.062,-0.008c0.017,-0.006 0.033,-0.015 0.048,-0.027c0.011,-0.009 0.022,-0.013 0.033,-0.014c0.011,-0.001 0.021,0.002 0.03,0.009c0.011,0.009 0.018,0.02 0.019,0.032c0.001,0.011 -0.003,0.022 -0.012,0.031c-0.048,0.045 -0.108,0.067 -0.18,0.067Z" style="fill:#fff;fill-rule:nonzero;"/></g><g transform="matrix(103.484,0,0,103.484,625.633,620.217)"></g><g transform="matrix(103.484,0,0,103.484,122.597,815.217)"><path d="M0.152,-0c-0.015,-0 -0.027,-0.005 -0.037,-0.015c-0.01,-0.01 -0.015,-0.022 -0.015,-0.037l0,-0.677c0,-0.015 0.005,-0.028 0.015,-0.037c0.01,-0.01 0.022,-0.015 0.037,-0.015l0.181,0c0.057,0 0.109,0.01 0.157,0.029c0.047,0.019 0.087,0.046 0.122,0.081c0.035,0.035 0.061,0.076 0.08,0.123c0.019,0.047 0.028,0.1 0.028,0.157c0,0.057 -0.009,0.11 -0.028,0.158c-0.019,0.047 -0.045,0.089 -0.08,0.124c-0.035,0.035 -0.075,0.062 -0.123,0.081c-0.047,0.019 -0.099,0.028 -0.156,0.028l-0.181,0Zm0.052,-0.092l0.129,0c0.056,0 0.105,-0.013 0.149,-0.038c0.043,-0.026 0.076,-0.061 0.101,-0.106c0.025,-0.045 0.037,-0.097 0.037,-0.155c0,-0.059 -0.012,-0.11 -0.037,-0.155c-0.025,-0.045 -0.058,-0.08 -0.101,-0.105c-0.044,-0.025 -0.093,-0.038 -0.149,-0.038l-0.129,0l0,0.597Z" style="fill:#fff;fill-rule:nonzero;"/></g><g transform="matrix(103.484,0,0,103.484,203.625,815.217)"><path d="M0.151,-0c-0.015,-0 -0.027,-0.005 -0.036,-0.015c-0.01,-0.009 -0.015,-0.021 -0.015,-0.036l0,-0.445c0,-0.015 0.005,-0.028 0.015,-0.037c0.009,-0.009 0.021,-0.014 0.036,-0.014c0.015,0 0.028,0.005 0.037,0.014c0.009,0.009 0.014,0.022 0.014,0.037l0,0.445c0,0.015 -0.005,0.027 -0.014,0.037c-0.009,0.009 -0.022,0.014 -0.037,0.014Zm0,-0.636c-0.018,0 -0.034,-0.006 -0.047,-0.019c-0.012,-0.013 -0.019,-0.029 -0.019,-0.047c0,-0.018 0.007,-0.033 0.02,-0.046c0.012,-0.013 0.028,-0.02 0.046,-0.02c0.018,0 0.034,0.007 0.047,0.02c0.012,0.013 0.019,0.028 0.019,0.046c0,0.018 -0.007,0.034 -0.019,0.047c-0.014,0.013 -0.029,0.019 -0.047,0.019Z" style="fill:#fff;fill-rule:nonzero;"/></g><g transform="matrix(103.484,0,0,103.484,234.877,815.217)"><path d="M0.289,0.004c-0.047,0 -0.09,-0.007 -0.129,-0.022c-0.04,-0.014 -0.071,-0.032 -0.093,-0.054c-0.01,-0.011 -0.014,-0.023 -0.012,-0.037c0.001,-0.013 0.008,-0.024 0.019,-0.033c0.013,-0.011 0.027,-0.015 0.04,-0.014c0.013,0.002 0.024,0.008 0.033,0.018c0.011,0.013 0.03,0.025 0.055,0.036c0.025,0.01 0.052,0.016 0.083,0.016c0.039,0 0.068,-0.006 0.089,-0.019c0.02,-0.013 0.03,-0.029 0.031,-0.049c0.001,-0.02 -0.009,-0.037 -0.029,-0.052c-0.019,-0.015 -0.055,-0.027 -0.107,-0.036c-0.067,-0.013 -0.116,-0.033 -0.147,-0.06c-0.03,-0.027 -0.045,-0.059 -0.045,-0.098c-0,-0.034 0.01,-0.062 0.03,-0.084c0.02,-0.023 0.046,-0.039 0.077,-0.05c0.031,-0.011 0.064,-0.017 0.098,-0.017c0.044,0 0.083,0.007 0.117,0.021c0.034,0.014 0.061,0.033 0.081,0.058c0.009,0.011 0.014,0.022 0.013,0.034c-0.001,0.011 -0.006,0.021 -0.017,0.029c-0.011,0.007 -0.023,0.01 -0.038,0.007c-0.015,-0.003 -0.027,-0.009 -0.037,-0.018c-0.017,-0.016 -0.035,-0.027 -0.054,-0.033c-0.019,-0.006 -0.042,-0.009 -0.067,-0.009c-0.029,0 -0.054,0.005 -0.075,0.015c-0.02,0.01 -0.03,0.025 -0.03,0.044c-0,0.012 0.003,0.023 0.009,0.033c0.007,0.009 0.019,0.018 0.038,0.026c0.019,0.007 0.046,0.015 0.082,0.022c0.05,0.01 0.089,0.023 0.118,0.038c0.029,0.015 0.05,0.033 0.063,0.054c0.013,0.02 0.019,0.043 0.019,0.07c-0,0.031 -0.008,0.058 -0.025,0.083c-0.016,0.025 -0.04,0.044 -0.072,0.059c-0.031,0.015 -0.071,0.022 -0.118,0.022Z" style="fill:#fff;fill-rule:nonzero;"/></g><g transform="matrix(103.484,0,0,103.484,291.069,815.217)"><path d="M0.338,0.004c-0.053,0 -0.101,-0.012 -0.143,-0.037c-0.041,-0.024 -0.074,-0.057 -0.098,-0.099c-0.023,-0.041 -0.035,-0.088 -0.035,-0.141c0,-0.054 0.012,-0.102 0.035,-0.144c0.023,-0.042 0.055,-0.075 0.096,-0.098c0.041,-0.024 0.087,-0.036 0.14,-0.036c0.039,0 0.075,0.008 0.108,0.023c0.033,0.015 0.062,0.037 0.088,0.067c0.009,0.011 0.013,0.022 0.01,0.033c-0.003,0.011 -0.01,0.021 -0.022,0.03c-0.009,0.007 -0.02,0.009 -0.031,0.007c-0.011,-0.003 -0.022,-0.009 -0.031,-0.018c-0.033,-0.035 -0.073,-0.052 -0.122,-0.052c-0.034,0 -0.064,0.008 -0.09,0.024c-0.026,0.015 -0.046,0.037 -0.061,0.065c-0.015,0.028 -0.022,0.061 -0.022,0.099c0,0.036 0.008,0.068 0.023,0.096c0.015,0.028 0.035,0.05 0.062,0.067c0.027,0.016 0.058,0.024 0.093,0.024c0.023,0 0.044,-0.003 0.062,-0.008c0.017,-0.006 0.033,-0.015 0.048,-0.027c0.011,-0.009 0.022,-0.013 0.033,-0.014c0.011,-0.001 0.021,0.002 0.03,0.009c0.011,0.009 0.018,0.02 0.019,0.032c0.001,0.011 -0.003,0.022 -0.012,0.031c-0.048,0.045 -0.108,0.067 -0.18,0.067Z" style="fill:#fff;fill-rule:nonzero;"/></g><g transform="matrix(103.484,0,0,103.484,353.263,815.217)"><path d="M0.338,0.004c-0.054,0 -0.102,-0.012 -0.143,-0.036c-0.041,-0.023 -0.074,-0.056 -0.098,-0.098c-0.023,-0.041 -0.035,-0.089 -0.035,-0.143c0,-0.055 0.012,-0.103 0.035,-0.144c0.024,-0.042 0.057,-0.075 0.098,-0.098c0.041,-0.024 0.089,-0.036 0.143,-0.036c0.053,0 0.101,0.012 0.142,0.036c0.041,0.023 0.074,0.056 0.097,0.098c0.024,0.041 0.036,0.089 0.036,0.144c-0,0.054 -0.012,0.102 -0.035,0.144c-0.023,0.041 -0.056,0.074 -0.097,0.098c-0.041,0.023 -0.089,0.035 -0.143,0.035Zm-0,-0.09c0.035,-0 0.065,-0.008 0.092,-0.024c0.027,-0.016 0.047,-0.038 0.062,-0.066c0.015,-0.028 0.023,-0.06 0.023,-0.097c0,-0.037 -0.008,-0.069 -0.023,-0.097c-0.015,-0.029 -0.035,-0.051 -0.062,-0.067c-0.027,-0.016 -0.057,-0.024 -0.092,-0.024c-0.035,0 -0.065,0.008 -0.092,0.024c-0.027,0.016 -0.048,0.038 -0.063,0.067c-0.015,0.028 -0.023,0.06 -0.023,0.097c0,0.037 0.008,0.069 0.023,0.097c0.015,0.028 0.036,0.05 0.063,0.066c0.027,0.016 0.057,0.024 0.092,0.024Z" style="fill:#fff;fill-rule:nonzero;"/></g><g transform="matrix(103.484,0,0,103.484,423.114,815.217)"><path d="M0.149,-0c-0.013,-0 -0.024,-0.005 -0.034,-0.014c-0.01,-0.009 -0.015,-0.022 -0.015,-0.037l0,-0.493c0,-0.048 0.01,-0.09 0.029,-0.125c0.018,-0.035 0.045,-0.063 0.079,-0.083c0.034,-0.019 0.073,-0.029 0.118,-0.029c0.015,0 0.027,0.004 0.036,0.013c0.01,0.009 0.015,0.02 0.015,0.033c0,0.013 -0.005,0.023 -0.015,0.032c-0.009,0.009 -0.021,0.014 -0.036,0.014c-0.025,-0 -0.046,0.006 -0.065,0.017c-0.019,0.011 -0.033,0.027 -0.043,0.047c-0.011,0.02 -0.016,0.044 -0.016,0.071l0,0.503c0,0.015 -0.005,0.028 -0.014,0.037c-0.009,0.009 -0.022,0.014 -0.039,0.014Zm-0.092,-0.441c-0.014,-0 -0.025,-0.004 -0.034,-0.012c-0.009,-0.008 -0.013,-0.018 -0.013,-0.03c0,-0.013 0.004,-0.024 0.013,-0.032c0.009,-0.008 0.02,-0.012 0.034,-0.012l0.247,-0c0.014,-0 0.025,0.004 0.034,0.012c0.009,0.008 0.013,0.019 0.013,0.032c0,0.012 -0.004,0.022 -0.013,0.03c-0.009,0.008 -0.02,0.012 -0.034,0.012l-0.247,-0Z" style="fill:#fff;fill-rule:nonzero;"/></g><g transform="matrix(103.484,0,0,103.484,459.023,815.217)"><path d="M0.338,0.004c-0.054,0 -0.102,-0.012 -0.143,-0.036c-0.041,-0.023 -0.074,-0.056 -0.098,-0.098c-0.023,-0.041 -0.035,-0.089 -0.035,-0.143c0,-0.055 0.012,-0.103 0.035,-0.144c0.024,-0.042 0.057,-0.075 0.098,-0.098c0.041,-0.024 0.089,-0.036 0.143,-0.036c0.053,0 0.101,0.012 0.142,0.036c0.041,0.023 0.074,0.056 0.097,0.098c0.024,0.041 0.036,0.089 0.036,0.144c-0,0.054 -0.012,0.102 -0.035,0.144c-0.023,0.041 -0.056,0.074 -0.097,0.098c-0.041,0.023 -0.089,0.035 -0.143,0.035Zm-0,-0.09c0.035,-0 0.065,-0.008 0.092,-0.024c0.027,-0.016 0.047,-0.038 0.062,-0.066c0.015,-0.028 0.023,-0.06 0.023,-0.097c0,-0.037 -0.008,-0.069 -0.023,-0.097c-0.015,-0.029 -0.035,-0.051 -0.062,-0.067c-0.027,-0.016 -0.057,-0.024 -0.092,-0.024c-0.035,0 -0.065,0.008 -0.092,0.024c-0.027,0.016 -0.048,0.038 -0.063,0.067c-0.015,0.028 -0.023,0.06 -0.023,0.097c0,0.037 0.008,0.069 0.023,0.097c0.015,0.028 0.036,0.05 0.063,0.066c0.027,0.016 0.057,0.024 0.092,0.024Z" style="fill:#fff;fill-rule:nonzero;"/></g><g transform="matrix(103.484,0,0,103.484,523.701,815.217)"><path d="M0.474,-0c-0.007,-0 -0.013,-0.001 -0.019,-0.003c-0.006,-0.002 -0.012,-0.006 -0.017,-0.013l-0.175,-0.21l-0.036,-0.036l-0.174,-0.206c-0.009,-0.011 -0.013,-0.022 -0.014,-0.035c-0.001,-0.012 0.003,-0.022 0.01,-0.031c0.007,-0.009 0.018,-0.013 0.033,-0.013c0.016,0 0.029,0.006 0.038,0.017l0.171,0.204l0.026,0.024l0.188,0.225c0.01,0.012 0.015,0.024 0.014,0.035c0,0.012 -0.004,0.022 -0.013,0.03c-0.008,0.008 -0.019,0.012 -0.032,0.012Zm-0.382,-0c-0.013,-0 -0.024,-0.004 -0.032,-0.013c-0.007,-0.008 -0.011,-0.018 -0.011,-0.03c-0,-0.012 0.005,-0.024 0.014,-0.036l0.17,-0.213l0.054,0.076l-0.159,0.2c-0.01,0.011 -0.022,0.016 -0.036,0.016Zm0.247,-0.257l-0.069,-0.059l0.161,-0.214c0.005,-0.007 0.011,-0.011 0.017,-0.014c0.006,-0.002 0.013,-0.003 0.02,-0.003c0.015,-0 0.026,0.004 0.033,0.013c0.007,0.009 0.011,0.02 0.01,0.033c0,0.013 -0.005,0.025 -0.014,0.037l-0.158,0.207Z" style="fill:#fff;fill-rule:nonzero;"/></g><g transform="matrix(103.484,0,0,103.484,581.342,815.217)"></g></g></svg>